<?xml version="1.0" encoding="UTF-8" standalone="no"?>
<!DOCTYPE svg PUBLIC "-//W3C//DTD SVG 1.1//EN"
 "http://www.w3.org/Graphics/SVG/1.1/DTD/svg11.dtd">
<!-- Generated by graphviz version 5.0.0 (20220707.1540)
 -->
<!-- Title: dependencies Pages: 1 -->
<svg width="1116pt" height="174pt"
 viewBox="0.00 0.00 1116.00 173.80" xmlns="http://www.w3.org/2000/svg" xmlns:xlink="http://www.w3.org/1999/xlink">
<g id="graph0" class="graph" transform="scale(1 1) rotate(0) translate(4 169.8)">
<title>dependencies</title>
<polygon fill="white" stroke="transparent" points="-4,4 -4,-169.8 1112,-169.8 1112,4 -4,4"/>
<text text-anchor="middle" x="554" y="-8.2" font-family="sans-serif" font-size="14.00">dependencies</text>
<g id="clust1" class="cluster">
<title>cluster_AuthModule</title>
<polygon fill="none" stroke="black" stroke-dasharray="1,5" points="8,-32.8 8,-157.8 1100,-157.8 1100,-32.8 8,-32.8"/>
</g>
<g id="clust6" class="cluster">
<title>cluster_AuthModule_providers</title>
<polygon fill="none" stroke="black" points="126,-40.8 126,-92.8 1092,-92.8 1092,-40.8 126,-40.8"/>
</g>
<g id="clust3" class="cluster">
<title>cluster_AuthModule_imports</title>
<polygon fill="none" stroke="black" points="16,-40.8 16,-92.8 118,-92.8 118,-40.8 16,-40.8"/>
</g>
<!-- UserModule -->
<g id="node1" class="node">
<title>UserModule</title>
<polygon fill="#8dd3c7" stroke="black" points="109.99,-84.8 106.99,-88.8 85.99,-88.8 82.99,-84.8 24.01,-84.8 24.01,-48.8 109.99,-48.8 109.99,-84.8"/>
<text text-anchor="middle" x="67" y="-62.6" font-family="Times,serif" font-size="14.00">UserModule</text>
</g>
<!-- AuthModule -->
<g id="node2" class="node">
<title>AuthModule</title>
<polygon fill="#8dd3c7" stroke="black" points="507.55,-149.8 504.55,-153.8 483.55,-153.8 480.55,-149.8 420.45,-149.8 420.45,-113.8 507.55,-113.8 507.55,-149.8"/>
<text text-anchor="middle" x="464" y="-127.6" font-family="Times,serif" font-size="14.00">AuthModule</text>
</g>
<!-- UserModule&#45;&gt;AuthModule -->
<g id="edge1" class="edge">
<title>UserModule&#45;&gt;AuthModule</title>
<path fill="none" stroke="black" d="M67,-85.08C67,-106.12 67,-137.8 67,-137.8 67,-137.8 410.38,-137.8 410.38,-137.8"/>
<polygon fill="black" stroke="black" points="410.38,-141.3 420.38,-137.8 410.38,-134.3 410.38,-141.3"/>
</g>
<!-- AuthService -->
<g id="node3" class="node">
<title>AuthService</title>
<ellipse fill="#fdb462" stroke="black" cx="1025" cy="-66.8" rx="59.11" ry="18"/>
<text text-anchor="middle" x="1025" y="-62.6" font-family="Times,serif" font-size="14.00">AuthService</text>
</g>
<!-- AuthService&#45;&gt;AuthModule -->
<g id="edge2" class="edge">
<title>AuthService&#45;&gt;AuthModule</title>
<path fill="none" stroke="black" d="M1025,-85.08C1025,-106.12 1025,-137.8 1025,-137.8 1025,-137.8 517.55,-137.8 517.55,-137.8"/>
<polygon fill="black" stroke="black" points="517.55,-134.3 507.55,-137.8 517.55,-141.3 517.55,-134.3"/>
</g>
<!-- IsConfirmTokenValidConstraint -->
<g id="node4" class="node">
<title>IsConfirmTokenValidConstraint</title>
<ellipse fill="#fdb462" stroke="black" cx="811" cy="-66.8" rx="137.19" ry="18"/>
<text text-anchor="middle" x="811" y="-62.6" font-family="Times,serif" font-size="14.00">IsConfirmTokenValidConstraint</text>
</g>
<!-- IsConfirmTokenValidConstraint&#45;&gt;AuthModule -->
<g id="edge3" class="edge">
<title>IsConfirmTokenValidConstraint&#45;&gt;AuthModule</title>
<path fill="none" stroke="black" d="M811,-84.82C811,-102.17 811,-125.8 811,-125.8 811,-125.8 517.6,-125.8 517.6,-125.8"/>
<polygon fill="black" stroke="black" points="517.6,-122.3 507.6,-125.8 517.6,-129.3 517.6,-122.3"/>
</g>
<!-- IsUserExistsConstraint -->
<g id="node5" class="node">
<title>IsUserExistsConstraint</title>
<ellipse fill="#fdb462" stroke="black" cx="556" cy="-66.8" rx="100.18" ry="18"/>
<text text-anchor="middle" x="556" y="-62.6" font-family="Times,serif" font-size="14.00">IsUserExistsConstraint</text>
</g>
<!-- IsUserExistsConstraint&#45;&gt;AuthModule -->
<g id="edge4" class="edge">
<title>IsUserExistsConstraint&#45;&gt;AuthModule</title>
<path fill="none" stroke="black" d="M481.84,-79.03C481.84,-79.03 481.84,-103.48 481.84,-103.48"/>
<polygon fill="black" stroke="black" points="478.34,-103.48 481.84,-113.48 485.34,-103.48 478.34,-103.48"/>
</g>
<!-- LocalStrategy -->
<g id="node6" class="node">
<title>LocalStrategy</title>
<ellipse fill="#fdb462" stroke="black" cx="373" cy="-66.8" rx="65.4" ry="18"/>
<text text-anchor="middle" x="373" y="-62.6" font-family="Times,serif" font-size="14.00">LocalStrategy</text>
</g>
<!-- LocalStrategy&#45;&gt;AuthModule -->
<g id="edge5" class="edge">
<title>LocalStrategy&#45;&gt;AuthModule</title>
<path fill="none" stroke="black" d="M429.21,-76.11C429.21,-76.11 429.21,-103.65 429.21,-103.65"/>
<polygon fill="black" stroke="black" points="425.71,-103.65 429.21,-113.65 432.71,-103.65 425.71,-103.65"/>
</g>
<!-- SessionSerializer -->
<g id="node7" class="node">
<title>SessionSerializer</title>
<ellipse fill="#fdb462" stroke="black" cx="212" cy="-66.8" rx="77.59" ry="18"/>
<text text-anchor="middle" x="212" y="-62.6" font-family="Times,serif" font-size="14.00">SessionSerializer</text>
</g>
<!-- SessionSerializer&#45;&gt;AuthModule -->
<g id="edge6" class="edge">
<title>SessionSerializer&#45;&gt;AuthModule</title>
<path fill="none" stroke="black" d="M212,-84.82C212,-102.17 212,-125.8 212,-125.8 212,-125.8 410.39,-125.8 410.39,-125.8"/>
<polygon fill="black" stroke="black" points="410.39,-129.3 420.39,-125.8 410.39,-122.3 410.39,-129.3"/>
</g>
</g>
</svg>
