<?xml version="1.0" encoding="UTF-8" standalone="no"?>
<!DOCTYPE svg PUBLIC "-//W3C//DTD SVG 1.1//EN"
 "http://www.w3.org/Graphics/SVG/1.1/DTD/svg11.dtd">
<!-- Generated by graphviz version 5.0.0 (20220707.1540)
 -->
<!-- Title: dependencies Pages: 1 -->
<svg width="680pt" height="174pt"
 viewBox="0.00 0.00 680.00 173.80" xmlns="http://www.w3.org/2000/svg" xmlns:xlink="http://www.w3.org/1999/xlink">
<g id="graph0" class="graph" transform="scale(1 1) rotate(0) translate(4 169.8)">
<title>dependencies</title>
<polygon fill="white" stroke="transparent" points="-4,4 -4,-169.8 676,-169.8 676,4 -4,4"/>
<text text-anchor="middle" x="336" y="-8.2" font-family="sans-serif" font-size="14.00">dependencies</text>
<g id="clust1" class="cluster">
<title>cluster_AppModule</title>
<polygon fill="none" stroke="black" stroke-dasharray="1,5" points="8,-32.8 8,-157.8 664,-157.8 664,-32.8 8,-32.8"/>
</g>
<g id="clust3" class="cluster">
<title>cluster_AppModule_imports</title>
<polygon fill="none" stroke="black" points="16,-40.8 16,-92.8 656,-92.8 656,-40.8 16,-40.8"/>
</g>
<!-- AuthModule -->
<g id="node1" class="node">
<title>AuthModule</title>
<polygon fill="#8dd3c7" stroke="black" points="647.55,-84.8 644.55,-88.8 623.55,-88.8 620.55,-84.8 560.45,-84.8 560.45,-48.8 647.55,-48.8 647.55,-84.8"/>
<text text-anchor="middle" x="604" y="-62.6" font-family="Times,serif" font-size="14.00">AuthModule</text>
</g>
<!-- AppModule -->
<g id="node7" class="node">
<title>AppModule</title>
<polygon fill="#8dd3c7" stroke="black" points="375.66,-149.8 372.66,-153.8 351.66,-153.8 348.66,-149.8 292.34,-149.8 292.34,-113.8 375.66,-113.8 375.66,-149.8"/>
<text text-anchor="middle" x="334" y="-127.6" font-family="Times,serif" font-size="14.00">AppModule</text>
</g>
<!-- AuthModule&#45;&gt;AppModule -->
<g id="edge1" class="edge">
<title>AuthModule&#45;&gt;AppModule</title>
<path fill="none" stroke="black" d="M604,-85.08C604,-106.12 604,-137.8 604,-137.8 604,-137.8 385.89,-137.8 385.89,-137.8"/>
<polygon fill="black" stroke="black" points="385.89,-134.3 375.89,-137.8 385.89,-141.3 385.89,-134.3"/>
</g>
<!-- PostModule -->
<g id="node2" class="node">
<title>PostModule</title>
<polygon fill="#8dd3c7" stroke="black" points="541.68,-84.8 538.68,-88.8 517.68,-88.8 514.68,-84.8 458.32,-84.8 458.32,-48.8 541.68,-48.8 541.68,-84.8"/>
<text text-anchor="middle" x="500" y="-62.6" font-family="Times,serif" font-size="14.00">PostModule</text>
</g>
<!-- PostModule&#45;&gt;AppModule -->
<g id="edge2" class="edge">
<title>PostModule&#45;&gt;AppModule</title>
<path fill="none" stroke="black" d="M500,-84.82C500,-102.17 500,-125.8 500,-125.8 500,-125.8 385.89,-125.8 385.89,-125.8"/>
<polygon fill="black" stroke="black" points="385.89,-122.3 375.89,-125.8 385.89,-129.3 385.89,-122.3"/>
</g>
<!-- PrismaModule -->
<g id="node3" class="node">
<title>PrismaModule</title>
<polygon fill="#8dd3c7" stroke="black" points="440.44,-84.8 437.44,-88.8 416.44,-88.8 413.44,-84.8 341.56,-84.8 341.56,-48.8 440.44,-48.8 440.44,-84.8"/>
<text text-anchor="middle" x="391" y="-62.6" font-family="Times,serif" font-size="14.00">PrismaModule</text>
</g>
<!-- PrismaModule&#45;&gt;AppModule -->
<g id="edge3" class="edge">
<title>PrismaModule&#45;&gt;AppModule</title>
<path fill="none" stroke="black" d="M358.81,-84.91C358.81,-84.91 358.81,-103.79 358.81,-103.79"/>
<polygon fill="black" stroke="black" points="355.31,-103.79 358.81,-113.79 362.31,-103.79 355.31,-103.79"/>
</g>
<!-- RedisModule -->
<g id="node4" class="node">
<title>RedisModule</title>
<polygon fill="#8dd3c7" stroke="black" points="323.94,-84.8 320.94,-88.8 299.94,-88.8 296.94,-84.8 232.06,-84.8 232.06,-48.8 323.94,-48.8 323.94,-84.8"/>
<text text-anchor="middle" x="278" y="-62.6" font-family="Times,serif" font-size="14.00">RedisModule</text>
</g>
<!-- RedisModule&#45;&gt;AppModule -->
<g id="edge4" class="edge">
<title>RedisModule&#45;&gt;AppModule</title>
<path fill="none" stroke="black" d="M307.94,-84.91C307.94,-84.91 307.94,-103.79 307.94,-103.79"/>
<polygon fill="black" stroke="black" points="304.44,-103.79 307.94,-113.79 311.44,-103.79 304.44,-103.79"/>
</g>
<!-- UserModule -->
<g id="node5" class="node">
<title>UserModule</title>
<polygon fill="#8dd3c7" stroke="black" points="213.99,-84.8 210.99,-88.8 189.99,-88.8 186.99,-84.8 128.01,-84.8 128.01,-48.8 213.99,-48.8 213.99,-84.8"/>
<text text-anchor="middle" x="171" y="-62.6" font-family="Times,serif" font-size="14.00">UserModule</text>
</g>
<!-- UserModule&#45;&gt;AppModule -->
<g id="edge5" class="edge">
<title>UserModule&#45;&gt;AppModule</title>
<path fill="none" stroke="black" d="M171,-84.82C171,-102.17 171,-125.8 171,-125.8 171,-125.8 282.02,-125.8 282.02,-125.8"/>
<polygon fill="black" stroke="black" points="282.02,-129.3 292.02,-125.8 282.02,-122.3 282.02,-129.3"/>
</g>
<!-- UtilsModule -->
<g id="node6" class="node">
<title>UtilsModule</title>
<polygon fill="#8dd3c7" stroke="black" points="110.28,-84.8 107.28,-88.8 86.28,-88.8 83.28,-84.8 23.72,-84.8 23.72,-48.8 110.28,-48.8 110.28,-84.8"/>
<text text-anchor="middle" x="67" y="-62.6" font-family="Times,serif" font-size="14.00">UtilsModule</text>
</g>
<!-- UtilsModule&#45;&gt;AppModule -->
<g id="edge6" class="edge">
<title>UtilsModule&#45;&gt;AppModule</title>
<path fill="none" stroke="black" d="M67,-85.08C67,-106.12 67,-137.8 67,-137.8 67,-137.8 282.28,-137.8 282.28,-137.8"/>
<polygon fill="black" stroke="black" points="282.28,-141.3 292.28,-137.8 282.28,-134.3 282.28,-141.3"/>
</g>
</g>
</svg>
