<?xml version="1.0" encoding="UTF-8" standalone="no"?>
<!DOCTYPE svg PUBLIC "-//W3C//DTD SVG 1.1//EN"
 "http://www.w3.org/Graphics/SVG/1.1/DTD/svg11.dtd">
<!-- Generated by graphviz version 5.0.0 (20220707.1540)
 -->
<!-- Title: dependencies Pages: 1 -->
<svg width="2388pt" height="326pt"
 viewBox="0.00 0.00 2388.00 325.80" xmlns="http://www.w3.org/2000/svg" xmlns:xlink="http://www.w3.org/1999/xlink">
<g id="graph0" class="graph" transform="scale(1 1) rotate(0) translate(4 321.8)">
<title>dependencies</title>
<polygon fill="white" stroke="transparent" points="-4,4 -4,-321.8 2384,-321.8 2384,4 -4,4"/>
<text text-anchor="middle" x="1190" y="-8.2" font-family="sans-serif" font-size="14.00">dependencies</text>
<g id="clust1" class="cluster">
<title>cluster_AppModule</title>
<polygon fill="none" stroke="black" stroke-dasharray="1,5" points="998,-108.8 998,-309.8 1548,-309.8 1548,-108.8 998,-108.8"/>
</g>
<g id="clust3" class="cluster">
<title>cluster_AppModule_imports</title>
<polygon fill="none" stroke="black" points="1006,-116.8 1006,-244.8 1540,-244.8 1540,-116.8 1006,-116.8"/>
</g>
<g id="clust7" class="cluster">
<title>cluster_AuthModule</title>
<polygon fill="none" stroke="black" stroke-dasharray="1,5" points="8,-108.8 8,-176.8 990,-176.8 990,-108.8 8,-108.8"/>
</g>
<g id="clust12" class="cluster">
<title>cluster_AuthModule_providers</title>
<polygon fill="none" stroke="black" points="16,-116.8 16,-168.8 982,-168.8 982,-116.8 16,-116.8"/>
</g>
<g id="clust13" class="cluster">
<title>cluster_PostModule</title>
<polygon fill="none" stroke="black" stroke-dasharray="1,5" points="983,-32.8 983,-100.8 1129,-100.8 1129,-32.8 983,-32.8"/>
</g>
<g id="clust18" class="cluster">
<title>cluster_PostModule_providers</title>
<polygon fill="none" stroke="black" points="991,-40.8 991,-92.8 1121,-92.8 1121,-40.8 991,-40.8"/>
</g>
<g id="clust19" class="cluster">
<title>cluster_PrismaModule</title>
<polygon fill="none" stroke="black" stroke-dasharray="1,5" points="1556,-184.8 1556,-252.8 1846,-252.8 1846,-184.8 1556,-184.8"/>
</g>
<g id="clust22" class="cluster">
<title>cluster_PrismaModule_exports</title>
<polygon fill="none" stroke="black" points="1722,-192.8 1722,-244.8 1838,-244.8 1838,-192.8 1722,-192.8"/>
</g>
<g id="clust24" class="cluster">
<title>cluster_PrismaModule_providers</title>
<polygon fill="none" stroke="black" points="1564,-192.8 1564,-244.8 1714,-244.8 1714,-192.8 1564,-192.8"/>
</g>
<g id="clust31" class="cluster">
<title>cluster_UserModule</title>
<polygon fill="none" stroke="black" stroke-dasharray="1,5" points="1854,-184.8 1854,-252.8 2114,-252.8 2114,-184.8 1854,-184.8"/>
</g>
<g id="clust34" class="cluster">
<title>cluster_UserModule_exports</title>
<polygon fill="none" stroke="black" points="2002,-192.8 2002,-244.8 2106,-244.8 2106,-192.8 2002,-192.8"/>
</g>
<g id="clust36" class="cluster">
<title>cluster_UserModule_providers</title>
<polygon fill="none" stroke="black" points="1862,-192.8 1862,-244.8 1994,-244.8 1994,-192.8 1862,-192.8"/>
</g>
<g id="clust37" class="cluster">
<title>cluster_UtilsModule</title>
<polygon fill="none" stroke="black" stroke-dasharray="1,5" points="2122,-184.8 2122,-252.8 2372,-252.8 2372,-184.8 2122,-184.8"/>
</g>
<g id="clust40" class="cluster">
<title>cluster_UtilsModule_exports</title>
<polygon fill="none" stroke="black" points="2264,-192.8 2264,-244.8 2364,-244.8 2364,-192.8 2264,-192.8"/>
</g>
<g id="clust42" class="cluster">
<title>cluster_UtilsModule_providers</title>
<polygon fill="none" stroke="black" points="2130,-192.8 2130,-244.8 2256,-244.8 2256,-192.8 2130,-192.8"/>
</g>
<!-- AuthModule -->
<g id="node1" class="node">
<title>AuthModule</title>
<polygon fill="#8dd3c7" stroke="black" points="1101.55,-236.8 1098.55,-240.8 1077.55,-240.8 1074.55,-236.8 1014.45,-236.8 1014.45,-200.8 1101.55,-200.8 1101.55,-236.8"/>
<text text-anchor="middle" x="1058" y="-214.6" font-family="Times,serif" font-size="14.00">AuthModule</text>
</g>
<!-- AppModule -->
<g id="node7" class="node">
<title>AppModule</title>
<polygon fill="#8dd3c7" stroke="black" points="1259.66,-301.8 1256.66,-305.8 1235.66,-305.8 1232.66,-301.8 1176.34,-301.8 1176.34,-265.8 1259.66,-265.8 1259.66,-301.8"/>
<text text-anchor="middle" x="1218" y="-279.6" font-family="Times,serif" font-size="14.00">AppModule</text>
</g>
<!-- AuthModule&#45;&gt;AppModule -->
<g id="edge1" class="edge">
<title>AuthModule&#45;&gt;AppModule</title>
<path fill="none" stroke="black" d="M1101.57,-227.8C1138.9,-227.8 1186.69,-227.8 1186.69,-227.8 1186.69,-227.8 1186.69,-255.77 1186.69,-255.77"/>
<polygon fill="black" stroke="black" points="1183.19,-255.77 1186.69,-265.77 1190.19,-255.77 1183.19,-255.77"/>
</g>
<!-- PostModule -->
<g id="node2" class="node">
<title>PostModule</title>
<polygon fill="#8dd3c7" stroke="black" points="1097.68,-160.8 1094.68,-164.8 1073.68,-164.8 1070.68,-160.8 1014.32,-160.8 1014.32,-124.8 1097.68,-124.8 1097.68,-160.8"/>
<text text-anchor="middle" x="1056" y="-138.6" font-family="Times,serif" font-size="14.00">PostModule</text>
</g>
<!-- PostModule&#45;&gt;AppModule -->
<g id="edge2" class="edge">
<title>PostModule&#45;&gt;AppModule</title>
<path fill="none" stroke="black" d="M1097.81,-142.8C1103.38,-142.8 1107.2,-142.8 1107.2,-142.8 1107.2,-142.8 1107.2,-283.8 1107.2,-283.8 1107.2,-283.8 1166.11,-283.8 1166.11,-283.8"/>
<polygon fill="black" stroke="black" points="1166.11,-287.3 1176.11,-283.8 1166.11,-280.3 1166.11,-287.3"/>
</g>
<!-- PrismaModule -->
<g id="node3" class="node">
<title>PrismaModule</title>
<polygon fill="#8dd3c7" stroke="black" points="1324.44,-160.8 1321.44,-164.8 1300.44,-164.8 1297.44,-160.8 1225.56,-160.8 1225.56,-124.8 1324.44,-124.8 1324.44,-160.8"/>
<text text-anchor="middle" x="1275" y="-138.6" font-family="Times,serif" font-size="14.00">PrismaModule</text>
</g>
<!-- PrismaModule&#45;&gt;AppModule -->
<g id="edge3" class="edge">
<title>PrismaModule&#45;&gt;AppModule</title>
<path fill="none" stroke="black" d="M1242.81,-160.94C1242.81,-160.94 1242.81,-255.73 1242.81,-255.73"/>
<polygon fill="black" stroke="black" points="1239.31,-255.72 1242.81,-265.73 1246.31,-255.73 1239.31,-255.72"/>
</g>
<!-- PrismaService  -->
<g id="node14" class="node">
<title>PrismaService </title>
<polygon fill="#fb8072" stroke="black" points="1830.37,-236.8 1729.63,-236.8 1729.63,-200.8 1830.37,-200.8 1830.37,-236.8"/>
<text text-anchor="middle" x="1780" y="-214.6" font-family="Times,serif" font-size="14.00">PrismaService </text>
</g>
<!-- PrismaModule&#45;&gt;PrismaService  -->
<g id="edge14" class="edge">
<title>PrismaModule&#45;&gt;PrismaService </title>
<path fill="none" stroke="black" stroke-dasharray="5,2" d="M1281.29,-160.95C1281.29,-174.54 1281.29,-190.8 1281.29,-190.8 1281.29,-190.8 1780,-190.8 1780,-190.8 1780,-190.8 1780,-191.78 1780,-191.78"/>
<polygon fill="black" stroke="black" points="1776.5,-190.59 1780,-200.59 1783.5,-190.59 1776.5,-190.59"/>
</g>
<!-- RedisModule -->
<g id="node4" class="node">
<title>RedisModule</title>
<polygon fill="#8dd3c7" stroke="black" points="1207.94,-160.8 1204.94,-164.8 1183.94,-164.8 1180.94,-160.8 1116.06,-160.8 1116.06,-124.8 1207.94,-124.8 1207.94,-160.8"/>
<text text-anchor="middle" x="1162" y="-138.6" font-family="Times,serif" font-size="14.00">RedisModule</text>
</g>
<!-- RedisModule&#45;&gt;AppModule -->
<g id="edge4" class="edge">
<title>RedisModule&#45;&gt;AppModule</title>
<path fill="none" stroke="black" d="M1197.2,-160.94C1197.2,-160.94 1197.2,-255.73 1197.2,-255.73"/>
<polygon fill="black" stroke="black" points="1193.7,-255.72 1197.2,-265.73 1200.7,-255.73 1193.7,-255.72"/>
</g>
<!-- UserModule -->
<g id="node5" class="node">
<title>UserModule</title>
<polygon fill="#8dd3c7" stroke="black" points="1427.99,-160.8 1424.99,-164.8 1403.99,-164.8 1400.99,-160.8 1342.01,-160.8 1342.01,-124.8 1427.99,-124.8 1427.99,-160.8"/>
<text text-anchor="middle" x="1385" y="-138.6" font-family="Times,serif" font-size="14.00">UserModule</text>
</g>
<!-- UserModule&#45;&gt;AuthModule -->
<g id="edge7" class="edge">
<title>UserModule&#45;&gt;AuthModule</title>
<path fill="none" stroke="black" d="M1393.6,-160.81C1393.6,-183.29 1393.6,-218.8 1393.6,-218.8 1393.6,-218.8 1111.87,-218.8 1111.87,-218.8"/>
<polygon fill="black" stroke="black" points="1111.87,-215.3 1101.87,-218.8 1111.87,-222.3 1111.87,-215.3"/>
</g>
<!-- UserModule&#45;&gt;AppModule -->
<g id="edge5" class="edge">
<title>UserModule&#45;&gt;AppModule</title>
<path fill="none" stroke="black" d="M1410.8,-161.01C1410.8,-197.86 1410.8,-277.8 1410.8,-277.8 1410.8,-277.8 1269.83,-277.8 1269.83,-277.8"/>
<polygon fill="black" stroke="black" points="1269.83,-274.3 1259.83,-277.8 1269.83,-281.3 1269.83,-274.3"/>
</g>
<!-- UserService  -->
<g id="node16" class="node">
<title>UserService </title>
<polygon fill="#fb8072" stroke="black" points="2097.91,-236.8 2010.09,-236.8 2010.09,-200.8 2097.91,-200.8 2097.91,-236.8"/>
<text text-anchor="middle" x="2054" y="-214.6" font-family="Times,serif" font-size="14.00">UserService </text>
</g>
<!-- UserModule&#45;&gt;UserService  -->
<g id="edge16" class="edge">
<title>UserModule&#45;&gt;UserService </title>
<path fill="none" stroke="black" stroke-dasharray="5,2" d="M1359.2,-161.01C1359.2,-166.35 1359.2,-170.8 1359.2,-170.8 1359.2,-170.8 2054,-170.8 2054,-170.8 2054,-170.8 2054,-190.65 2054,-190.65"/>
<polygon fill="black" stroke="black" points="2050.5,-190.65 2054,-200.65 2057.5,-190.65 2050.5,-190.65"/>
</g>
<!-- UtilsModule -->
<g id="node6" class="node">
<title>UtilsModule</title>
<polygon fill="#8dd3c7" stroke="black" points="1532.28,-160.8 1529.28,-164.8 1508.28,-164.8 1505.28,-160.8 1445.72,-160.8 1445.72,-124.8 1532.28,-124.8 1532.28,-160.8"/>
<text text-anchor="middle" x="1489" y="-138.6" font-family="Times,serif" font-size="14.00">UtilsModule</text>
</g>
<!-- UtilsModule&#45;&gt;AppModule -->
<g id="edge6" class="edge">
<title>UtilsModule&#45;&gt;AppModule</title>
<path fill="none" stroke="black" d="M1489,-160.83C1489,-200.08 1489,-289.8 1489,-289.8 1489,-289.8 1269.75,-289.8 1269.75,-289.8"/>
<polygon fill="black" stroke="black" points="1269.75,-286.3 1259.75,-289.8 1269.75,-293.3 1269.75,-286.3"/>
</g>
<!-- UtilService  -->
<g id="node18" class="node">
<title>UtilService </title>
<polygon fill="#fb8072" stroke="black" points="2355.76,-236.8 2272.24,-236.8 2272.24,-200.8 2355.76,-200.8 2355.76,-236.8"/>
<text text-anchor="middle" x="2314" y="-214.6" font-family="Times,serif" font-size="14.00">UtilService </text>
</g>
<!-- UtilsModule&#45;&gt;UtilService  -->
<g id="edge18" class="edge">
<title>UtilsModule&#45;&gt;UtilService </title>
<path fill="none" stroke="black" stroke-dasharray="5,2" d="M1532.48,-136.8C1702.64,-136.8 2314,-136.8 2314,-136.8 2314,-136.8 2314,-190.6 2314,-190.6"/>
<polygon fill="black" stroke="black" points="2310.5,-190.6 2314,-200.6 2317.5,-190.6 2310.5,-190.6"/>
</g>
<!-- AuthService -->
<g id="node8" class="node">
<title>AuthService</title>
<ellipse fill="#fdb462" stroke="black" cx="915" cy="-142.8" rx="59.11" ry="18"/>
<text text-anchor="middle" x="915" y="-138.6" font-family="Times,serif" font-size="14.00">AuthService</text>
</g>
<!-- AuthService&#45;&gt;AuthModule -->
<g id="edge8" class="edge">
<title>AuthService&#45;&gt;AuthModule</title>
<path fill="none" stroke="black" d="M915,-160.97C915,-179.89 915,-206.8 915,-206.8 915,-206.8 1004.32,-206.8 1004.32,-206.8"/>
<polygon fill="black" stroke="black" points="1004.32,-210.3 1014.32,-206.8 1004.32,-203.3 1004.32,-210.3"/>
</g>
<!-- IsConfirmTokenValidConstraint -->
<g id="node9" class="node">
<title>IsConfirmTokenValidConstraint</title>
<ellipse fill="#fdb462" stroke="black" cx="701" cy="-142.8" rx="137.19" ry="18"/>
<text text-anchor="middle" x="701" y="-138.6" font-family="Times,serif" font-size="14.00">IsConfirmTokenValidConstraint</text>
</g>
<!-- IsConfirmTokenValidConstraint&#45;&gt;AuthModule -->
<g id="edge9" class="edge">
<title>IsConfirmTokenValidConstraint&#45;&gt;AuthModule</title>
<path fill="none" stroke="black" d="M701,-160.83C701,-181.57 701,-212.8 701,-212.8 701,-212.8 1004.22,-212.8 1004.22,-212.8"/>
<polygon fill="black" stroke="black" points="1004.22,-216.3 1014.22,-212.8 1004.22,-209.3 1004.22,-216.3"/>
</g>
<!-- IsUserExistsConstraint -->
<g id="node10" class="node">
<title>IsUserExistsConstraint</title>
<ellipse fill="#fdb462" stroke="black" cx="446" cy="-142.8" rx="100.18" ry="18"/>
<text text-anchor="middle" x="446" y="-138.6" font-family="Times,serif" font-size="14.00">IsUserExistsConstraint</text>
</g>
<!-- IsUserExistsConstraint&#45;&gt;AuthModule -->
<g id="edge10" class="edge">
<title>IsUserExistsConstraint&#45;&gt;AuthModule</title>
<path fill="none" stroke="black" d="M446,-160.81C446,-183.29 446,-218.8 446,-218.8 446,-218.8 1003.99,-218.8 1003.99,-218.8"/>
<polygon fill="black" stroke="black" points="1003.99,-222.3 1013.99,-218.8 1003.99,-215.3 1003.99,-222.3"/>
</g>
<!-- LocalStrategy -->
<g id="node11" class="node">
<title>LocalStrategy</title>
<ellipse fill="#fdb462" stroke="black" cx="263" cy="-142.8" rx="65.4" ry="18"/>
<text text-anchor="middle" x="263" y="-138.6" font-family="Times,serif" font-size="14.00">LocalStrategy</text>
</g>
<!-- LocalStrategy&#45;&gt;AuthModule -->
<g id="edge11" class="edge">
<title>LocalStrategy&#45;&gt;AuthModule</title>
<path fill="none" stroke="black" d="M263,-161C263,-185.16 263,-224.8 263,-224.8 263,-224.8 1004.41,-224.8 1004.41,-224.8"/>
<polygon fill="black" stroke="black" points="1004.41,-228.3 1014.41,-224.8 1004.41,-221.3 1004.41,-228.3"/>
</g>
<!-- SessionSerializer -->
<g id="node12" class="node">
<title>SessionSerializer</title>
<ellipse fill="#fdb462" stroke="black" cx="102" cy="-142.8" rx="77.59" ry="18"/>
<text text-anchor="middle" x="102" y="-138.6" font-family="Times,serif" font-size="14.00">SessionSerializer</text>
</g>
<!-- SessionSerializer&#45;&gt;AuthModule -->
<g id="edge12" class="edge">
<title>SessionSerializer&#45;&gt;AuthModule</title>
<path fill="none" stroke="black" d="M102,-161.03C102,-186.81 102,-230.8 102,-230.8 102,-230.8 1004.44,-230.8 1004.44,-230.8"/>
<polygon fill="black" stroke="black" points="1004.44,-234.3 1014.44,-230.8 1004.44,-227.3 1004.44,-234.3"/>
</g>
<!-- PostService -->
<g id="node13" class="node">
<title>PostService</title>
<ellipse fill="#fdb462" stroke="black" cx="1056" cy="-66.8" rx="56.77" ry="18"/>
<text text-anchor="middle" x="1056" y="-62.6" font-family="Times,serif" font-size="14.00">PostService</text>
</g>
<!-- PostService&#45;&gt;PostModule -->
<g id="edge13" class="edge">
<title>PostService&#45;&gt;PostModule</title>
<path fill="none" stroke="black" d="M1056,-84.81C1056,-84.81 1056,-114.65 1056,-114.65"/>
<polygon fill="black" stroke="black" points="1052.5,-114.65 1056,-124.65 1059.5,-114.65 1052.5,-114.65"/>
</g>
<!-- PrismaService -->
<g id="node15" class="node">
<title>PrismaService</title>
<ellipse fill="#fdb462" stroke="black" cx="1639" cy="-218.8" rx="66.64" ry="18"/>
<text text-anchor="middle" x="1639" y="-214.6" font-family="Times,serif" font-size="14.00">PrismaService</text>
</g>
<!-- PrismaService&#45;&gt;PrismaModule -->
<g id="edge15" class="edge">
<title>PrismaService&#45;&gt;PrismaModule</title>
<path fill="none" stroke="black" d="M1580.81,-209.8C1484.58,-209.8 1302.76,-209.8 1302.76,-209.8 1302.76,-209.8 1302.76,-171.11 1302.76,-171.11"/>
<polygon fill="black" stroke="black" points="1306.26,-171.11 1302.76,-161.11 1299.26,-171.11 1306.26,-171.11"/>
</g>
<!-- UserService -->
<g id="node17" class="node">
<title>UserService</title>
<ellipse fill="#fdb462" stroke="black" cx="1928" cy="-218.8" rx="58.46" ry="18"/>
<text text-anchor="middle" x="1928" y="-214.6" font-family="Times,serif" font-size="14.00">UserService</text>
</g>
<!-- UserService&#45;&gt;UserModule -->
<g id="edge17" class="edge">
<title>UserService&#45;&gt;UserModule</title>
<path fill="none" stroke="black" d="M1928,-200.69C1928,-190.9 1928,-180.8 1928,-180.8 1928,-180.8 1376.4,-180.8 1376.4,-180.8 1376.4,-180.8 1376.4,-170.91 1376.4,-170.91"/>
<polygon fill="black" stroke="black" points="1379.9,-170.91 1376.4,-160.91 1372.9,-170.91 1379.9,-170.91"/>
</g>
<!-- UtilService -->
<g id="node19" class="node">
<title>UtilService</title>
<ellipse fill="#fdb462" stroke="black" cx="2193" cy="-218.8" rx="55.03" ry="18"/>
<text text-anchor="middle" x="2193" y="-214.6" font-family="Times,serif" font-size="14.00">UtilService</text>
</g>
<!-- UtilService&#45;&gt;UtilsModule -->
<g id="edge19" class="edge">
<title>UtilService&#45;&gt;UtilsModule</title>
<path fill="none" stroke="black" d="M2193,-200.77C2193,-180.03 2193,-148.8 2193,-148.8 2193,-148.8 1542.51,-148.8 1542.51,-148.8"/>
<polygon fill="black" stroke="black" points="1542.51,-145.3 1532.51,-148.8 1542.51,-152.3 1542.51,-145.3"/>
</g>
</g>
</svg>
